<svg xmlns="http://www.w3.org/2000/svg" width="172.189" height="142.426" viewBox="0 0 172.189 142.426">
  <defs>
    <style>
      .cls-1 {
        fill: #70c5dd;
      }

      .cls-2 {
        fill: #ceebf9;
      }

      .cls-3 {
        fill: #fea200;
      }

      .cls-4 {
        fill: #4d1912;
      }

      .cls-5 {
        fill: none;
        stroke: #4d1912;
        stroke-miterlimit: 10;
        stroke-width: 2px;
      }

      .cls-6 {
        fill: #040506;
      }

      .cls-7 {
        fill: #fff;
      }

      .cls-8 {
        fill: #ae0018;
      }
    </style>
  </defs>
  <g id="Groupe_2577" data-name="Groupe 2577" transform="translate(-349.629 -291.347)">
    <g id="Groupe_2571" data-name="Groupe 2571" transform="translate(358.064 348.018)">
      <path id="Tracé_7216" data-name="Tracé 7216" class="cls-1" d="M414.941,399.812C400.026,407.893,391.4,412.566,380.5,410.6c-7.54-1.357-19.516-6.488-21.625-16.451-2.544-12.01,11.04-22.591,11.771-23.146,22.671-17.185,66.4-.232,66.965,11.568C437.839,387.407,430.207,391.541,414.941,399.812Z" transform="translate(-358.557 -351.954)"/>
      <path id="Tracé_7217" data-name="Tracé 7217" class="cls-1" d="M488.783,351.554c7.067.352,12.073.6,17.415,3.845,6.71,4.073,14.059,12.936,12.92,23.265-1.4,12.722-14.7,18.712-18.678,20.506-2.093.943-23.406,10.154-36.693-3.074-11.31-11.258-9.95-31.949-.3-40.186C469.662,350.6,478.644,351.049,488.783,351.554Z" transform="translate(-363.917 -351.268)"/>
    </g>
    <g id="Groupe_2572" data-name="Groupe 2572" transform="translate(349.629 292.809)">
      <path id="Tracé_7218" data-name="Tracé 7218" class="cls-2" d="M458.984,327.729c2.845-9.778,2.88-13.656,7.055-19.581,2-2.84,9.648-12.812,21.935-14.912,15.632-2.671,32.624,8.446,37.5,21.629,8.554,23.15-19.179,55.611-47.37,60.616-11.929,2.118-28.989.216-32.943-8.439C441.749,359.578,451.3,354.132,458.984,327.729Z" transform="translate(-354.859 -292.836)"/>
      <path id="Tracé_7219" data-name="Tracé 7219" class="cls-2" d="M424.82,334.852c-10.894-10.849-18.911-18.616-32.082-21.2-3.523-.692-22.019-4.321-33.876,7.453-7.931,7.874-11.047,20.806-8.195,30.467,9.771,33.08,93.618,41.618,101.761,24.6C456.911,366.806,438.864,348.836,424.82,334.852Z" transform="translate(-349.629 -293.925)"/>
    </g>
    <g id="Groupe_2573" data-name="Groupe 2573" transform="translate(393.697 369.665)">
      <path id="Tracé_7220" data-name="Tracé 7220" class="cls-3" d="M473.671,419.371c-.227.443-.472.888-.718,1.331-5.121,9.015-13.729,13.766-23.366,15.978-.01-.009-.01-.009-.019,0-23.574,5.376-53.3-4.47-53.3-4.47s3.59-3.438,10.8-20.645c1.946-4.648,4.167-10.308,6.642-17.176.406-1.124.822-2.278,1.238-3.468,1.455-4.13,4.7-7.588,8.938-10.262,11.877-7.52,31.567-8.937,41.62-1.908a28.158,28.158,0,0,1,9.392,10.97C479.217,398.687,478.679,409.713,473.671,419.371Z" transform="translate(-396.27 -374.179)"/>
      <path id="Tracé_7221" data-name="Tracé 7221" class="cls-4" d="M449.568,438.863c-23.574,5.376-53.3-4.47-53.3-4.47s3.59-3.438,10.8-20.645a48.622,48.622,0,0,0,14.957,16.686C432.06,437.257,442.473,438.268,449.568,438.863Z" transform="translate(-396.27 -376.362)"/>
      <path id="Tracé_7222" data-name="Tracé 7222" class="cls-4" d="M474.69,419.749c-13.341,5.442-32.143,3.543-44.653-5.094-7.313-5.045-11.81-11.933-15.306-19.888.406-1.124.822-2.278,1.238-3.468,1.455-4.13,4.7-7.588,8.938-10.262,13.473,21.354,22.827,19.994,31.917,20.144,9,.152,16.95-8.693,19.1-11.082C480.236,399.066,479.7,410.092,474.69,419.749Z" transform="translate(-397.288 -374.557)"/>
    </g>
    <g id="Groupe_2574" data-name="Groupe 2574" transform="translate(410.993 346.816)">
      <path id="Tracé_7223" data-name="Tracé 7223" class="cls-4" d="M472.714,375.129c0,6.116-7.452,11.074-16.645,11.074s-16.645-4.958-16.645-11.074,10.62-14.466,19.813-14.466S472.714,369.013,472.714,375.129Z" transform="translate(-415.946 -350.585)"/>
      <path id="Tracé_7224" data-name="Tracé 7224" class="cls-5" d="M467.562,379.67a44.11,44.11,0,0,1,12.761,15.3,44.942,44.942,0,0,1,4.057,27.047" transform="translate(-417.498 -351.633)"/>
      <path id="Tracé_7225" data-name="Tracé 7225" class="cls-5" d="M473.3,372.87a14.677,14.677,0,0,1,7.3,2.452c7.263,4.973,6.61,14.951,6.56,15.571" transform="translate(-417.815 -351.258)"/>
      <path id="Tracé_7226" data-name="Tracé 7226" class="cls-5" d="M471.127,367.192A21.113,21.113,0,0,0,491.6,353.975" transform="translate(-417.695 -350.216)"/>
      <path id="Tracé_7227" data-name="Tracé 7227" class="cls-5" d="M450.5,381.222a36.023,36.023,0,0,0-8.116,16.131,36.784,36.784,0,0,0,3.248,23.965" transform="translate(-416.067 -351.719)"/>
      <path id="Tracé_7228" data-name="Tracé 7228" class="cls-5" d="M444.9,376.209a19.343,19.343,0,0,0-7.864,5.326c-5.544,6.3-4.852,14.142-4.689,15.649" transform="translate(-415.549 -351.442)"/>
      <path id="Tracé_7229" data-name="Tracé 7229" class="cls-5" d="M417.852,359.963a16.858,16.858,0,0,0,24.863,13.342" transform="translate(-414.756 -350.546)"/>
      <path id="Tracé_7230" data-name="Tracé 7230" class="cls-4" d="M440.87,426.86c.467,1.216,3.2.775,5.016.078a2.082,2.082,0,0,0,1.375-3.091c-.467-1.215-2.317-1.636-4.132-.939S440.4,425.644,440.87,426.86Z" transform="translate(-416.019 -353.999)"/>
      <path id="Tracé_7231" data-name="Tracé 7231" class="cls-4" d="M489.282,425.61c0,1.3-2.71,1.871-4.654,1.871s-2.39-1.089-2.39-2.392,1.576-2.357,3.521-2.357S489.282,424.308,489.282,425.61Z" transform="translate(-418.308 -354.008)"/>
      <ellipse id="Ellipse_14" data-name="Ellipse 14" class="cls-4" cx="1.641" cy="2.736" rx="1.641" ry="2.736" transform="matrix(0.814, -0.581, 0.581, 0.814, 66.886, 39.164)"/>
      <ellipse id="Ellipse_15" data-name="Ellipse 15" class="cls-4" cx="2.736" cy="1.641" rx="2.736" ry="1.641" transform="matrix(0.779, -0.627, 0.627, 0.779, 71.134, 3.433)"/>
      <ellipse id="Ellipse_16" data-name="Ellipse 16" class="cls-4" cx="1.641" cy="2.736" rx="1.641" ry="2.736" transform="translate(0 6.134) rotate(-23.366)"/>
    </g>
    <g id="Groupe_2576" data-name="Groupe 2576" transform="translate(404.059 292.346)">
      <path id="Tracé_7232" data-name="Tracé 7232" class="cls-3" d="M481.012,336.293c3.092,16.21-9.672,28.356-26.416,30.835s-32.913-2.7-34.216-21.859c-1-14.675,9.673-28.357,26.416-30.835S478.254,321.844,481.012,336.293Z" transform="translate(-407.958 -293.543)"/>
      <path id="Tracé_7233" data-name="Tracé 7233" class="cls-6" d="M465.153,338.1c-4.891-2.78-4.548-10.743.531-11.7,4.518-.848,8.554,5.8,5.566,9.973C469.75,338.471,467.6,339.492,465.153,338.1Z" transform="translate(-410.24 -294.221)"/>
      <path id="Tracé_7234" data-name="Tracé 7234" class="cls-7" d="M465.684,332.868a2.053,2.053,0,0,1-1.788-3.415c1.08-1.081,2.979-.969,3.342.547C467.542,331.263,467.1,332.619,465.684,332.868Z" transform="translate(-410.332 -294.354)"/>
      <path id="Tracé_7235" data-name="Tracé 7235" class="cls-6" d="M451.48,342.893c2.7-4.934-1.772-11.53-6.6-9.674-4.29,1.652-4.229,9.432.5,11.41C447.761,345.621,450.131,345.358,451.48,342.893Z" transform="translate(-409.141 -294.583)"/>
      <path id="Tracé_7236" data-name="Tracé 7236" class="cls-7" d="M448.5,338.659a2.054,2.054,0,0,0-.272-3.846c-1.486-.352-3.044.74-2.557,2.221C446.074,338.268,447.158,339.192,448.5,338.659Z" transform="translate(-409.352 -294.685)"/>
      <path id="Tracé_7237" data-name="Tracé 7237" class="cls-8" d="M455.619,351.656c.613-.791,4.54.062,7.288-.5,4.532-.928,5.043-5.055,6.391-4.5,1.582.647,1.9,10.045-3.161,12-3.28,1.267-6.947-1.312-8.552-2.972C456.381,354.432,455.059,352.378,455.619,351.656Z" transform="translate(-409.899 -295.339)"/>
      <g id="Groupe_2575" data-name="Groupe 2575">
        <path id="Tracé_7238" data-name="Tracé 7238" class="cls-5" d="M459.632,318.6a37.664,37.664,0,0,1,5.758-18.047c2.3-3.554,4.809-7.31,9.246-8.065a11.418,11.418,0,0,1,7.466,1.569" transform="translate(-410.127 -292.347)"/>
        <path id="Tracé_7239" data-name="Tracé 7239" class="cls-5" d="M409.878,317.641a21.244,21.244,0,0,1,11.079-4.73c12.564-1.307,20.946,10.2,21.361,10.784" transform="translate(-407.383 -293.475)"/>
        <circle id="Ellipse_17" data-name="Ellipse 17" class="cls-4" cx="2.575" cy="2.575" r="2.575" transform="translate(70.611)"/>
        <circle id="Ellipse_18" data-name="Ellipse 18" class="cls-4" cx="2.575" cy="2.575" r="2.575" transform="translate(0 21.032)"/>
      </g>
    </g>
  </g>
</svg>
