<svg xmlns="http://www.w3.org/2000/svg" width="22.833" height="38.083" viewBox="0 0 22.833 38.083"><defs><style>.a{fill:#03b5d6;}.a,.b,.c{stroke:#fff;}.b{fill:#5a5b72;}.c{fill:#fedb41;}.d{fill:#a7cb23;}</style></defs><g transform="translate(-113.24 -8)"><path class="a" d="M135.573,276.7v8.834a2.511,2.511,0,0,1-2.5,2.5H116.243a2.511,2.511,0,0,1-2.5-2.5V276.7a5.034,5.034,0,0,1,3.108-4.662V270.61h15.617v1.432a4.85,4.85,0,0,1,2.262,1.842A5.1,5.1,0,0,1,135.573,276.7Z" transform="translate(0 -242.458)"/><path class="b" d="M163,202.705v4.633H146.14v-4.633a.626.626,0,0,1,.626-.625h15.608A.626.626,0,0,1,163,202.705Z" transform="translate(-29.914 -179.187)"/><path class="c" d="M201.059,85.88a4.972,4.972,0,0,1-2.367,4.237V90.2h-5.2v-.079a4.975,4.975,0,1,1,7.571-4.244Z" transform="translate(-71.431 -67.31)"/><g transform="translate(116.205 8)"><path class="d" d="M234.918,101.368a.828.828,0,1,1,.828-.828.46.46,0,0,0,.921,0,1.751,1.751,0,0,0-1.285-1.686V98.46a.46.46,0,0,0-.921,0v.391a1.749,1.749,0,0,0,.457,3.437.827.827,0,0,1,.09,1.65.451.451,0,0,0-.273-.016.827.827,0,0,1-.644-.806.46.46,0,0,0-.921,0,1.748,1.748,0,0,0,1.215,1.664v.356a.46.46,0,1,0,.921,0v-.315a1.748,1.748,0,0,0-.388-3.453Z" transform="translate(-226.47 -91.094)"/><path class="d" d="M248.46,10.839a.46.46,0,0,1-.46-.46V8.46a.46.46,0,0,1,.921,0v1.918A.46.46,0,0,1,248.46,10.839Z" transform="translate(-240.162 -8)"/><path class="d" d="M336.1,55.815a.46.46,0,0,1-.325-.786l1.384-1.384a.46.46,0,1,1,.651.651l-1.384,1.384A.459.459,0,0,1,336.1,55.815Z" transform="translate(-321.079 -50.017)"/><path class="d" d="M147.705,56.115a.459.459,0,0,1-.326-.135L145.994,54.6a.46.46,0,1,1,.651-.651l1.385,1.385a.46.46,0,0,1-.326.786Z" transform="translate(-145.859 -50.294)"/><path class="d" d="M190.81,26.406a.46.46,0,0,1-.42-.272l-.8-1.786a.46.46,0,1,1,.84-.377l.8,1.786a.46.46,0,0,1-.42.649Z" transform="translate(-186.196 -22.494)"/><path class="d" d="M293.19,23.184a.46.46,0,0,1-.43-.624l.7-1.83a.46.46,0,1,1,.861.328l-.7,1.83A.46.46,0,0,1,293.19,23.184Z" transform="translate(-281.46 -19.479)"/></g></g></svg>