<svg xmlns="http://www.w3.org/2000/svg" width="123.509" height="122.234" viewBox="0 0 123.509 122.234">
  <g id="Groupe_2639" data-name="Groupe 2639" transform="translate(-236.334 -71.41)">
    <g id="Groupe_2633" data-name="Groupe 2633" transform="translate(244.269 123.69)">
      <path id="Tracé_7305" data-name="Tracé 7305" d="M288.279,184.732c-10.426,6.446-16.455,10.174-24.4,9.21-5.5-.667-14.347-3.873-16.281-10.974-2.332-8.558,7.031-16.754,7.535-17.184,15.645-13.335,47.894-2.914,48.788,5.576C304.286,174.835,298.95,178.134,288.279,184.732Z" transform="translate(-247.224 -147.57)" fill="#70c5dd"/>
      <path id="Tracé_7306" data-name="Tracé 7306" d="M360.147,143.17c5.113-.038,8.735-.065,12.723,2.054,5.009,2.662,10.677,8.751,10.282,16.25-.487,9.236-9.828,14.107-12.626,15.566-1.471.767-16.466,8.293-26.6-.7-8.624-7.655-8.5-22.638-1.881-28.979C346.314,143.273,352.813,143.225,360.147,143.17Z" transform="translate(-271.655 -143.161)" fill="#70c5dd"/>
    </g>
    <g id="Groupe_2634" data-name="Groupe 2634" transform="translate(236.334 83.438)">
      <path id="Tracé_7307" data-name="Tracé 7307" d="M335.266,114.523c1.647-7.171,1.513-9.971,4.28-14.418,1.326-2.131,6.43-9.641,15.208-11.665,11.167-2.574,23.885,4.743,27.945,14.053,7.128,16.347-11.537,40.913-31.667,45.689-8.518,2.021-20.9,1.355-24.115-4.726C324.148,138.212,330.815,133.888,335.266,114.523Z" transform="translate(-260.738 -87.918)" fill="#ceebf9"/>
      <path id="Tracé_7308" data-name="Tracé 7308" d="M290.237,126.7c-8.309-7.375-14.413-12.648-24.022-13.968-2.571-.353-16.064-2.207-24.131,6.777-5.4,6.009-7.109,15.468-4.651,22.319,8.416,23.46,69.259,26.153,74.43,13.54C314.709,148.423,300.946,136.2,290.237,126.7Z" transform="translate(-236.334 -94.544)" fill="#ceebf9"/>
    </g>
    <g id="Groupe_2635" data-name="Groupe 2635" transform="translate(273.079 140.357)">
      <path id="Tracé_7309" data-name="Tracé 7309" d="M343.033,196.667c-.1.372-.212.746-.325,1.121-2.4,7.627-8.115,12.607-15.021,15.838-.009-.005-.009-.005-.015,0-16.9,7.88-40.907,5.283-40.907,5.283s2.149-3.176,4.791-17.317c.713-3.82,1.467-8.448,2.219-14.028.124-.914.251-1.85.37-2.815a15.992,15.992,0,0,1,5.073-9.187c7.733-7.6,22.348-11.863,31.067-8.195a21.715,21.715,0,0,1,8.861,6.746C343.857,180.175,345.24,188.574,343.033,196.667Z" transform="translate(-286.765 -166.035)" fill="#fea200"/>
      <path id="Tracé_7310" data-name="Tracé 7310" d="M327.672,226.873c-16.9,7.88-40.907,5.283-40.907,5.283s2.149-3.176,4.791-17.317A37.495,37.495,0,0,0,305.54,224.99C314.212,228.5,322.226,227.576,327.672,226.873Z" transform="translate(-286.765 -179.279)" fill="#4d1912"/>
      <path id="Tracé_7311" data-name="Tracé 7311" d="M345.643,199.677c-9.174,6.268-23.657,7.889-34.49,3.409-6.332-2.617-10.841-7.079-14.768-12.509.124-.914.251-1.85.37-2.815a15.992,15.992,0,0,1,5.073-9.187c13.624,13.911,20.455,11.367,27.332,10.006,6.813-1.348,11.368-9.3,12.6-11.455C346.467,183.185,347.851,191.584,345.643,199.677Z" transform="translate(-289.376 -169.045)" fill="#4d1912"/>
    </g>
    <g id="Groupe_2636" data-name="Groupe 2636" transform="translate(278.94 128.223)">
      <path id="Tracé_7312" data-name="Tracé 7312" d="M343.6,166.636c0,4.716-5.747,8.54-12.836,8.54s-12.836-3.823-12.836-8.54,8.19-11.156,15.279-11.156S343.6,161.92,343.6,166.636Z" transform="translate(-301.083 -151.037)" fill="#4d1912"/>
      <path id="Tracé_7313" data-name="Tracé 7313" d="M347.046,174.836a34.023,34.023,0,0,1,7.966,13.135,34.655,34.655,0,0,1-.026,21.091" transform="translate(-308.984 -156.29)" fill="none" stroke="#4d1912" stroke-miterlimit="10" stroke-width="2"/>
      <path id="Tracé_7314" data-name="Tracé 7314" d="M350.058,166.688a11.316,11.316,0,0,1,4.607,3.741c3.9,5.553.737,12.585.534,13.019" transform="translate(-309.801 -154.079)" fill="none" stroke="#4d1912" stroke-miterlimit="10" stroke-width="2"/>
      <path id="Tracé_7315" data-name="Tracé 7315" d="M348.562,159.043a16.283,16.283,0,0,0,17.349-7.216" transform="translate(-309.395 -150.046)" fill="none" stroke="#4d1912" stroke-miterlimit="10" stroke-width="2"/>
      <path id="Tracé_7316" data-name="Tracé 7316" d="M329.744,177.667a27.78,27.78,0,0,0-6.259,12.44,28.367,28.367,0,0,0,2.505,18.481" transform="translate(-302.43 -157.058)" fill="none" stroke="#4d1912" stroke-miterlimit="10" stroke-width="2"/>
      <path id="Tracé_7317" data-name="Tracé 7317" d="M320.511,173.549a14.913,14.913,0,0,0-6.064,4.108,16.087,16.087,0,0,0-3.616,12.068" transform="translate(-299.132 -155.941)" fill="none" stroke="#4d1912" stroke-miterlimit="10" stroke-width="2"/>
      <path id="Tracé_7318" data-name="Tracé 7318" d="M297.584,174.721a13,13,0,0,1,19.174-10.288" transform="translate(-295.561 -153.063)" fill="none" stroke="#4d1912" stroke-miterlimit="10" stroke-width="2"/>
      <path id="Tracé_7319" data-name="Tracé 7319" d="M322.121,222.323c.36.938,2.469.6,3.868.061A1.606,1.606,0,0,0,327.05,220c-.36-.938-1.787-1.262-3.186-.725A2.68,2.68,0,0,0,322.121,222.323Z" transform="translate(-302.195 -168.279)" fill="#4d1912"/>
      <path id="Tracé_7320" data-name="Tracé 7320" d="M360.04,222.75c-.15.993-2.282,1.114-3.765.89a1.605,1.605,0,0,1-1.547-2.1c.15-.993,1.474-1.616,2.956-1.392A2.679,2.679,0,0,1,360.04,222.75Z" transform="translate(-311.058 -168.574)" fill="#4d1912"/>
      <ellipse id="Ellipse_40" data-name="Ellipse 40" cx="1.265" cy="2.11" rx="1.265" ry="2.11" transform="translate(43.749 28.365) rotate(-15.044)" fill="#4d1912"/>
      <ellipse id="Ellipse_41" data-name="Ellipse 41" cx="1.265" cy="2.11" rx="1.265" ry="2.11" transform="translate(54.791 2.525) rotate(-86.301)" fill="#4d1912"/>
      <ellipse id="Ellipse_42" data-name="Ellipse 42" cx="1.265" cy="2.11" rx="1.265" ry="2.11" transform="translate(0 19.203) rotate(-23.366)" fill="#4d1912"/>
    </g>
    <g id="Groupe_2638" data-name="Groupe 2638" transform="translate(267.401 71.41)">
      <path id="Tracé_7321" data-name="Tracé 7321" d="M344.1,119.928c5.369,11.538-1.887,23.027-13.939,28.037s-25.121,4.185-29.707-9.894c-3.513-10.786,1.886-23.027,13.939-28.037S339.313,109.643,344.1,119.928Z" transform="translate(-284.514 -81.34)" fill="#fea200"/>
      <path id="Tracé_7322" data-name="Tracé 7322" d="M340.957,126.817c-4.181-1.156-5.426-7.175-1.808-8.846,3.218-1.486,7.49,2.727,6.043,6.408C344.465,126.226,343.045,127.4,340.957,126.817Z" transform="translate(-294.724 -83.962)" fill="#040506"/>
      <path id="Tracé_7323" data-name="Tracé 7323" d="M340.671,123.442a1.584,1.584,0,0,1-1.981-2.216,1.486,1.486,0,0,1,2.6-.221A1.658,1.658,0,0,1,340.671,123.442Z" transform="translate(-295.121 -84.684)" fill="#fff"/>
      <path id="Tracé_7324" data-name="Tracé 7324" d="M327.588,135.546c1.09-4.2-3.5-8.288-6.757-5.991-2.9,2.044-1.384,7.85,2.527,8.437C325.321,138.286,327.044,137.643,327.588,135.546Z" transform="translate(-289.922 -87.009)" fill="#040506"/>
      <path id="Tracé_7325" data-name="Tracé 7325" d="M325.287,133.347a1.584,1.584,0,0,0-.929-2.824c-1.177.017-2.136,1.128-1.493,2.144A1.658,1.658,0,0,0,325.287,133.347Z" transform="translate(-290.827 -87.451)" fill="#fff"/>
      <path id="Tracé_7326" data-name="Tracé 7326" d="M349.295,141.6c-.181.75-3.214,1.391-4.97,2.655-2.895,2.085-1.95,5.149-3.073,5.188-1.317.044-4.511-6.465-1.568-9.441,1.907-1.928,5.3-1.272,6.955-.611C347.882,139.885,349.46,140.913,349.295,141.6Z" transform="translate(-295.12 -89.677)" fill="#ae0018"/>
      <g id="Groupe_2637" data-name="Groupe 2637" transform="translate(0)">
        <path id="Tracé_7327" data-name="Tracé 7327" d="M329.622,102.839a69.623,69.623,0,0,1-.818-14.351c.084-3.015.444-3.36-1.212-7.817-.967-2.6-6.242-6.862-5-6.515" transform="translate(-290.757 -72.15)" fill="none" stroke="#4d1912" stroke-miterlimit="10" stroke-width="2"/>
        <path id="Tracé_7328" data-name="Tracé 7328" d="M281.7,102.818c1.161-1.55,7.081,4.872,10.684,6.845,8.023,4.4,15.628,6.249,16.049,6.61" transform="translate(-279.712 -79.868)" fill="none" stroke="#4d1912" stroke-miterlimit="10" stroke-width="2"/>
        <circle id="Ellipse_43" data-name="Ellipse 43" cx="1.986" cy="1.986" r="1.986" transform="translate(29.401)" fill="#4d1912"/>
        <circle id="Ellipse_44" data-name="Ellipse 44" cx="1.986" cy="1.986" r="1.986" transform="translate(0 20.964)" fill="#4d1912"/>
      </g>
      <path id="Tracé_7329" data-name="Tracé 7329" d="M326.587,144.567c0,.715-.346,1.294-.772,1.294s-.772-.579-.772-1.294a19.019,19.019,0,0,1,.775-3.093A19.15,19.15,0,0,1,326.587,144.567Z" transform="translate(-291.474 -90.423)" fill="#98d6f4"/>
    </g>
  </g>
</svg>
