<svg xmlns="http://www.w3.org/2000/svg" width="39.028" height="39.134" viewBox="0 0 39.028 39.134">
  <defs>
    <style>
      .cls-1 {
        fill: #1d81ce;
      }

      .cls-2 {
        fill: #126db1;
      }

      .cls-3 {
        fill: #fcfcfc;
      }
    </style>
  </defs>
  <g id="facebook_6_" data-name="facebook (6)" transform="translate(0 -0.448)">
    <circle id="Ellipse_36" data-name="Ellipse 36" class="cls-1" cx="19.5" cy="19.5" r="19.5" transform="translate(0 0.448)"/>
    <path id="Tracé_7298" data-name="Tracé 7298" class="cls-2" d="M225.153,0a19.707,19.707,0,0,0-2.545.165,19.516,19.516,0,0,1,0,38.7,19.71,19.71,0,0,0,2.545.165,19.514,19.514,0,1,0,0-39.028Z" transform="translate(-205.639 0.554)"/>
    <path id="Tracé_7299" data-name="Tracé 7299" class="cls-3" d="M94.982,122.34v.727a.122.122,0,0,1-.122.122H89.549a.506.506,0,0,0-.506.506v4.932a.506.506,0,0,0,.506.506H94.86a.122.122,0,0,1,.122.122v11.313a.123.123,0,0,0,.08.115,19.424,19.424,0,0,0,5.73,1.159.123.123,0,0,0,.129-.123V129.254a.122.122,0,0,1,.122-.122h8.705a.506.506,0,0,0,.506-.506v-4.932a.506.506,0,0,0-.506-.506h-8.705a.122.122,0,0,1-.122-.122v-.727c0-3.282,2.659-5.094,5.939-5.094h2.888a.506.506,0,0,0,.506-.506v-4.932a.506.506,0,0,0-.506-.506H106.86C100.769,111.3,94.982,116.244,94.982,122.34Z" transform="translate(-82.255 -102.265)"/>
  </g>
</svg>
