<svg xmlns="http://www.w3.org/2000/svg" width="53.324" height="54.072" viewBox="0 0 53.324 54.072">
  <defs>
    <style>
      .cls-1 {
        fill: #70c5dd;
      }

      .cls-2 {
        fill: #ceebf9;
      }

      .cls-3 {
        fill: #fea200;
      }

      .cls-4 {
        fill: #4d1912;
      }

      .cls-5, .cls-8 {
        fill: none;
        stroke-miterlimit: 10;
      }

      .cls-5 {
        stroke: #4d1912;
        stroke-width: 2px;
      }

      .cls-6 {
        fill: #040506;
      }

      .cls-7 {
        fill: #fff;
      }

      .cls-8 {
        stroke: #ae0018;
        stroke-width: 0.742px;
      }
    </style>
  </defs>
  <g id="Groupe_2654" data-name="Groupe 2654" transform="translate(166.183 -374.356) rotate(25)">
    <g id="Groupe_2587" data-name="Groupe 2587" transform="translate(30.734 403.846)">
      <path id="Tracé_7268" data-name="Tracé 7268" class="cls-1" d="M132.3,436.919c3.626-3.82,5.724-6.029,6.015-9.456.2-2.37-.371-6.375-3.187-7.811-3.4-1.732-7.664,1.487-7.89,1.662-6.982,5.411-5.428,19.891-1.935,21.012C126.733,442.784,128.588,440.829,132.3,436.919Z" transform="translate(-105.296 -419.141)"/>
      <path id="Tracé_7269" data-name="Tracé 7269" class="cls-1" d="M64.776,433.551c-.465,2.147-.794,3.669-.253,5.532.68,2.341,2.744,5.259,5.933,5.751,3.928.606,6.8-2.9,7.655-3.945.452-.552,4.933-6.2,2.04-11.25-2.463-4.3-8.776-5.562-12.024-3.334C66.033,427.741,65.442,430.471,64.776,433.551Z" transform="translate(-64.243 -423.439)"/>
    </g>
    <g id="Groupe_2588" data-name="Groupe 2588" transform="translate(19.488 397.495)">
      <path id="Tracé_7270" data-name="Tracé 7270" class="cls-2" d="M47.074,443.035c-.98-3.006-1.029-4.209-2.384-6.007a11.2,11.2,0,0,0-6.955-4.411c-4.878-.674-10.041,2.944-11.422,7.084-2.425,7.269,6.5,17.069,15.3,18.343,3.723.539,9-.22,10.14-2.945C52.738,452.748,49.72,451.153,47.074,443.035Z" transform="translate(-25.909 -422.256)"/>
      <path id="Tracé_7271" data-name="Tracé 7271" class="cls-2" d="M77.027,419.647c-2.373-4.142-4.056-7.172-3.768-11.33.077-1.112.481-6.951,4.968-9.556a10.1,10.1,0,0,1,9.8,0c9.13,5.6,4.924,31.428-.835,32.5C84.018,431.848,80.086,424.986,77.027,419.647Z" transform="translate(-59.345 -397.495)"/>
    </g>
    <g id="Groupe_2589" data-name="Groupe 2589" transform="translate(41.02 420.962)">
      <path id="Tracé_7272" data-name="Tracé 7272" class="cls-3" d="M107.29,497.424c.151.036.3.068.459.1a10.632,10.632,0,0,0,8.485-2.293s0,0,0,0c6.024-4.48,9.7-13.483,9.7-13.483s-1.536.154-7.052-1.615c-1.49-.478-3.274-1.1-5.395-1.9-.347-.131-.7-.265-1.068-.407a6.435,6.435,0,0,0-4.225.04c-4.171,1.286-8.477,5.649-8.846,9.44a8.745,8.745,0,0,0,.695,4.43A10.346,10.346,0,0,0,107.29,497.424Z" transform="translate(-99.303 -477.486)"/>
      <path id="Tracé_7273" data-name="Tracé 7273" class="cls-4" d="M157.026,501.59c6.024-4.48,9.7-13.483,9.7-13.483s-1.536.154-7.052-1.615a15.1,15.1,0,0,1,.922,6.9A16.915,16.915,0,0,1,157.026,501.59Z" transform="translate(-140.091 -483.85)"/>
      <path id="Tracé_7274" data-name="Tracé 7274" class="cls-4" d="M109.072,497.424a15.664,15.664,0,0,0,7.805-11.568,13.862,13.862,0,0,0-1.607-7.625c-.347-.131-.7-.265-1.068-.407a6.435,6.435,0,0,0-4.225.04c2.323,7.488.115,9.421-1.683,11.6-1.781,2.156-5.471,2.248-6.468,2.272A10.346,10.346,0,0,0,109.072,497.424Z" transform="translate(-101.085 -477.486)"/>
    </g>
    <g id="Groupe_2590" data-name="Groupe 2590" transform="translate(32.179 414.959)">
      <path id="Tracé_7275" data-name="Tracé 7275" class="cls-4" d="M97.292,494.816c1.875.3,3.764-1.734,4.221-4.552s-.693-5.348-2.568-5.652-4.961,2.537-5.418,5.355A4.336,4.336,0,0,0,97.292,494.816Z" transform="translate(-86.34 -476.502)"/>
      <path id="Tracé_7276" data-name="Tracé 7276" class="cls-5" d="M111.369,512.184a13.694,13.694,0,0,0-1.034,6.1,13.955,13.955,0,0,0,3.137,7.892" transform="translate(-98.239 -496.001)"/>
      <path id="Tracé_7277" data-name="Tracé 7277" class="cls-5" d="M100.809,515.288a4.553,4.553,0,0,0-.985,2.177c-.407,2.7,2,4.665,2.151,4.785" transform="translate(-90.797 -498.194)"/>
      <path id="Tracé_7278" data-name="Tracé 7278" class="cls-5" d="M80.489,512.3a6.557,6.557,0,0,1-7.426,1.448" transform="translate(-71.92 -496.082)"/>
      <path id="Tracé_7279" data-name="Tracé 7279" class="cls-5" d="M117.718,495.693a11.186,11.186,0,0,1,4.293,3.607,11.422,11.422,0,0,1,2.011,7.235" transform="translate(-103.474 -484.348)"/>
      <path id="Tracé_7280" data-name="Tracé 7280" class="cls-5" d="M114.126,487.251a6,6,0,0,1,2.949-.028,6.478,6.478,0,0,1,3.96,3.169" transform="translate(-100.936 -478.242)"/>
      <path id="Tracé_7281" data-name="Tracé 7281" class="cls-5" d="M99.777,460.813a5.234,5.234,0,0,1,2.855,8.283" transform="translate(-90.797 -459.701)"/>
      <path id="Tracé_7282" data-name="Tracé 7282" class="cls-4" d="M139.869,531.8c.016.4-.818.613-1.421.637a.646.646,0,0,1-.771-.713c-.016-.4.46-.751,1.063-.775A1.079,1.079,0,0,1,139.869,531.8Z" transform="translate(-117.577 -509.26)"/>
      <path id="Tracé_7283" data-name="Tracé 7283" class="cls-4" d="M117.8,559.483c.2.349,1.019.079,1.541-.225a.646.646,0,0,0,.268-1.015c-.2-.349-.792-.387-1.313-.083A1.079,1.079,0,0,0,117.8,559.483Z" transform="translate(-103.474 -528.343)"/>
      <ellipse id="Ellipse_26" data-name="Ellipse 26" class="cls-4" cx="0.509" cy="0.849" rx="0.509" ry="0.849" transform="matrix(0.98, -0.2, 0.2, 0.98, 10.592, 23.6)"/>
      <ellipse id="Ellipse_27" data-name="Ellipse 27" class="cls-4" cx="0.849" cy="0.509" rx="0.849" ry="0.509" transform="translate(0 17.144) rotate(-5.015)"/>
      <ellipse id="Ellipse_28" data-name="Ellipse 28" class="cls-4" cx="0.509" cy="0.849" rx="0.509" ry="0.849" transform="translate(7.579 0.859) rotate(-57.434)"/>
    </g>
    <g id="Groupe_2592" data-name="Groupe 2592" transform="translate(16.822 409.594)">
      <path id="Tracé_7284" data-name="Tracé 7284" class="cls-3" d="M49.929,476.506c4.35,2.708,9.3.367,11.885-4.206s2.9-9.837-2.508-12.355a9.206,9.206,0,0,0-11.885,4.206C44.832,468.724,46.052,474.093,49.929,476.506Z" transform="translate(-37.477 -453.15)"/>
      <path id="Tracé_7285" data-name="Tracé 7285" class="cls-6" d="M61.375,496.557c.006-1.335-1.674-2.205-2.471-1.272a1.546,1.546,0,0,0,1.4,2.324A1.042,1.042,0,0,0,61.375,496.557Z" transform="translate(-46.381 -478.419)"/>
      <path id="Tracé_7286" data-name="Tracé 7286" class="cls-7" d="M64.249,498.729a.488.488,0,0,0-.673-.621.458.458,0,0,0-.081.8A.51.51,0,0,0,64.249,498.729Z" transform="translate(-49.659 -480.647)"/>
      <path id="Tracé_7287" data-name="Tracé 7287" class="cls-6" d="M76.237,485.037c-1.335-.027-2.164-1.727-1.212-2.5.847-.688,2.441.244,2.29,1.451A1.042,1.042,0,0,1,76.237,485.037Z" transform="translate(-57.66 -469.521)"/>
      <path id="Tracé_7288" data-name="Tracé 7288" class="cls-7" d="M78.458,487.422a.487.487,0,0,1-.865-.3c.011-.363.358-.652.667-.449A.51.51,0,0,1,78.458,487.422Z" transform="translate(-59.764 -472.563)"/>
      <g id="Groupe_2591" data-name="Groupe 2591" transform="translate(0 0)">
        <path id="Tracé_7289" data-name="Tracé 7289" class="cls-5" d="M28.648,487.422a11.693,11.693,0,0,0-5.871-.349c-1.287.269-2.656.577-3.37,1.777a3.545,3.545,0,0,0-.38,2.338" transform="translate(-18.343 -472.732)"/>
        <path id="Tracé_7290" data-name="Tracé 7290" class="cls-5" d="M59.932,441.6a6.6,6.6,0,0,0-2.609,2.681c-1.782,3.493.613,7.207.737,7.393" transform="translate(-44.977 -440.757)"/>
        <circle id="Ellipse_29" data-name="Ellipse 29" class="cls-4" cx="0.8" cy="0.8" r="0.8" transform="translate(0 18.105)"/>
        <circle id="Ellipse_30" data-name="Ellipse 30" class="cls-4" cx="0.8" cy="0.8" r="0.8" transform="translate(13.985)"/>
      </g>
      <path id="Tracé_7291" data-name="Tracé 7291" class="cls-8" d="M76.906,501.186a2.392,2.392,0,0,1-1.913,2.3,2.166,2.166,0,0,1-1.6-.559" transform="translate(-56.798 -482.865)"/>
    </g>
  </g>
</svg>
