<svg xmlns="http://www.w3.org/2000/svg" width="83.356" height="68.356" viewBox="0 0 83.356 68.356">
  <defs>
    <style>
      .cls-1 {
        fill: #70c5dd;
      }

      .cls-2 {
        fill: #ceebf9;
      }

      .cls-3 {
        fill: #fea200;
      }

      .cls-4 {
        fill: #4d1912;
      }

      .cls-5, .cls-8, .cls-9 {
        fill: none;
        stroke-miterlimit: 10;
      }

      .cls-5 {
        stroke: #4d1912;
        stroke-width: 2px;
      }

      .cls-6 {
        fill: #040506;
      }

      .cls-7 {
        fill: #fff;
      }

      .cls-8 {
        stroke: #040506;
      }

      .cls-9 {
        stroke: #ae0018;
      }
    </style>
  </defs>
  <g id="Groupe_2653" data-name="Groupe 2653" transform="translate(-19.633 -216.46)">
    <g id="Groupe_2580" data-name="Groupe 2580" transform="translate(28.141 244.277)">
      <path id="Tracé_7243" data-name="Tracé 7243" class="cls-1" d="M131.325,295.851c7.76,2.459,12.249,3.882,17.209,1.971,3.431-1.321,8.611-4.823,8.7-9.709.112-5.89-7.246-9.649-7.641-9.844-12.239-6.049-31.316,5.9-30.515,11.508C119.411,292.075,123.382,293.334,131.325,295.851Z" transform="translate(-82.483 -276.603)"/>
      <path id="Tracé_7244" data-name="Tracé 7244" class="cls-1" d="M50.66,281.665c-3.3.805-5.636,1.375-7.86,3.387-2.794,2.527-5.456,7.368-3.985,12.133,1.812,5.869,8.618,7.49,10.657,7.975,1.072.255,11.95,2.669,17.016-4.766,4.312-6.329,1.8-15.958-3.491-18.967C59.585,279.486,55.392,280.51,50.66,281.665Z" transform="translate(-38.396 -278.645)"/>
    </g>
    <g id="Groupe_2581" data-name="Groupe 2581" transform="translate(19.633 220.451)">
      <path id="Tracé_7245" data-name="Tracé 7245" class="cls-2" d="M52.293,239.591c-2.225-4.351-2.592-6.176-5.1-8.591-1.2-1.158-5.706-5.166-11.687-5.044-7.609.154-14.612,6.93-15.716,13.584-1.938,11.684,14.068,24.476,27.807,24.285,5.813-.08,13.682-2.52,14.763-6.957C63.3,253.043,58.3,251.34,52.293,239.591Z" transform="translate(-19.633 -225.093)"/>
      <path id="Tracé_7246" data-name="Tracé 7246" class="cls-2" d="M110.9,238.782c4.153-6.1,7.23-10.484,13.2-12.893,1.6-.644,9.987-4.028,16.64.449a15.608,15.608,0,0,1,6.617,13.618c-1.613,16.474-40.359,28.081-45.735,20.8C98.663,256.744,105.544,246.643,110.9,238.782Z" transform="translate(-64.057 -224.057)"/>
    </g>
    <g id="Groupe_2582" data-name="Groupe 2582" transform="translate(44.08 250.899)">
      <path id="Tracé_7247" data-name="Tracé 7247" class="cls-3" d="M74,309.732c.052.234.112.47.172.706,1.289,4.805,4.712,8.053,8.92,10.245.005,0,.005,0,.009,0,10.3,5.347,25.294,4.368,25.294,4.368s-1.252-2.031-2.52-10.894c-.342-2.394-.689-5.291-1.008-8.781-.053-.571-.107-1.157-.156-1.76a9.949,9.949,0,0,0-2.911-5.846c-4.606-4.929-13.58-7.967-19.1-5.918a13.512,13.512,0,0,0-5.688,3.959A15.989,15.989,0,0,0,74,309.732Z" transform="translate(-73.547 -291.207)"/>
      <path id="Tracé_7248" data-name="Tracé 7248" class="cls-4" d="M94.619,348.353c10.3,5.347,25.294,4.368,25.294,4.368s-1.252-2.031-2.52-10.894a23.333,23.333,0,0,1-8.963,5.941C102.944,349.724,97.987,348.934,94.619,348.353Z" transform="translate(-85.064 -318.874)"/>
      <path id="Tracé_7249" data-name="Tracé 7249" class="cls-4" d="M74,315.286c5.538,4.141,14.5,5.531,21.354,3.033a21.427,21.427,0,0,0,9.513-7.387c-.053-.571-.107-1.157-.156-1.76a9.949,9.949,0,0,0-2.911-5.846c-8.839,8.288-13.018,6.525-17.258,5.5-4.2-1.018-6.821-6.086-7.528-7.456A15.989,15.989,0,0,0,74,315.286Z" transform="translate(-73.547 -296.761)"/>
    </g>
    <g id="Groupe_2583" data-name="Groupe 2583" transform="translate(38.622 239.62)">
      <path id="Tracé_7250" data-name="Tracé 7250" class="cls-4" d="M88.816,292c.845,2.811,4.955,4.06,9.18,2.79s6.966-4.578,6.121-7.389-6.879-5.182-11.1-3.912S87.971,289.194,88.816,292Z" transform="translate(-76.272 -275.521)"/>
      <path id="Tracé_7251" data-name="Tracé 7251" class="cls-5" d="M92.139,304.184a21.173,21.173,0,0,0-3.752,8.793,21.569,21.569,0,0,0,1.87,12.991" transform="translate(-76.031 -287.021)"/>
      <path id="Tracé_7252" data-name="Tracé 7252" class="cls-5" d="M84.152,299.324a7.036,7.036,0,0,0-3.014,2.135c-2.651,3.288-.973,7.785-.865,8.062" transform="translate(-71.425 -284.364)"/>
      <path id="Tracé_7253" data-name="Tracé 7253" class="cls-5" d="M76.711,290.084a10.134,10.134,0,0,1-11.234-3.247" transform="translate(-63.678 -277.539)"/>
      <path id="Tracé_7254" data-name="Tracé 7254" class="cls-5" d="M113.327,300.908a17.293,17.293,0,0,1,5.958,6.293,17.652,17.652,0,0,1,1.817,11.463" transform="translate(-89.832 -285.23)"/>
      <path id="Tracé_7255" data-name="Tracé 7255" class="cls-5" d="M117.032,294.561a9.278,9.278,0,0,1,4.35,1.362,10.009,10.009,0,0,1,4.316,6.544" transform="translate(-91.857 -281.761)"/>
      <path id="Tracé_7256" data-name="Tracé 7256" class="cls-5" d="M127.417,271.005a8.09,8.09,0,0,1-9.585,9.566" transform="translate(-92.294 -268.886)"/>
      <path id="Tracé_7257" data-name="Tracé 7257" class="cls-4" d="M132.192,340.116c-.046.623-1.363.8-2.294.729a1,1,0,0,1-1.059-1.231c.047-.623.839-1.072,1.769-1A1.667,1.667,0,0,1,132.192,340.116Z" transform="translate(-98.306 -305.834)"/>
      <path id="Tracé_7258" data-name="Tracé 7258" class="cls-4" d="M89.065,352.4c.18.6,1.5.486,2.4.217a1,1,0,0,0,.769-1.43c-.18-.6-1.05-.866-1.944-.6A1.668,1.668,0,0,0,89.065,352.4Z" transform="translate(-76.551 -312.329)"/>
      <ellipse id="Ellipse_19" data-name="Ellipse 19" class="cls-4" cx="1.313" cy="0.787" rx="1.313" ry="0.787" transform="translate(7.575 26.578) rotate(-71.184)"/>
      <ellipse id="Ellipse_20" data-name="Ellipse 20" class="cls-4" cx="0.787" cy="1.313" rx="0.787" ry="1.313" transform="translate(0 9.235) rotate(-67.861)"/>
      <ellipse id="Ellipse_21" data-name="Ellipse 21" class="cls-4" cx="1.313" cy="0.787" rx="1.313" ry="0.787" transform="translate(34.224 2.608) rotate(-83.359)"/>
    </g>
    <g id="Groupe_2585" data-name="Groupe 2585" transform="translate(38.059 217.46)">
      <path id="Tracé_7259" data-name="Tracé 7259" class="cls-3" d="M71.144,247.291c.008,7.919,7.123,12.49,15.238,12.144s15.268-4.249,14.15-13.4c-.856-7.007-7.122-12.49-15.238-12.144S71.137,240.232,71.144,247.291Z" transform="translate(-66.213 -226.435)"/>
      <path id="Tracé_7260" data-name="Tracé 7260" class="cls-6" d="M86.062,256.738c1.57-1.339.9-4.185-1-4.177-1.686.007-2.681,2.682-1.316,3.978A1.61,1.61,0,0,0,86.062,256.738Z" transform="translate(-72.751 -236.645)"/>
      <path id="Tracé_7261" data-name="Tracé 7261" class="cls-7" d="M87.542,255.756a.754.754,0,0,0,.409-1.354c-.464-.314-1.14-.143-1.167.428C86.762,255.306,87.013,255.764,87.542,255.756Z" transform="translate(-74.76 -237.566)"/>
      <path id="Tracé_7262" data-name="Tracé 7262" class="cls-6" d="M103.685,260.421c-1.314-1.591-.158-4.277,1.708-3.941,1.66.3,2.176,3.106.608,4.145A1.609,1.609,0,0,1,103.685,260.421Z" transform="translate(-83.691 -238.771)"/>
      <path id="Tracé_7263" data-name="Tracé 7263" class="cls-7" d="M105.541,259.485a.753.753,0,0,1-.168-1.4c.511-.229,1.148.057,1.075.624C106.387,259.177,106.061,259.585,105.541,259.485Z" transform="translate(-84.696 -239.618)"/>
      <g id="Groupe_2584" data-name="Groupe 2584">
        <path id="Tracé_7264" data-name="Tracé 7264" class="cls-5" d="M76.89,228.411a18.069,18.069,0,0,0-4.345-7.985c-1.4-1.468-2.928-3.011-5.087-2.965a5.481,5.481,0,0,0-3.377,1.414" transform="translate(-62.353 -217.46)"/>
        <path id="Tracé_7265" data-name="Tracé 7265" class="cls-5" d="M123.009,228.551a10.2,10.2,0,0,0-5.65-1.228c-6.039.521-8.95,6.7-9.092,7.014" transform="translate(-86.503 -222.832)"/>
        <circle id="Ellipse_22" data-name="Ellipse 22" class="cls-4" cx="1.236" cy="1.236" r="1.236" transform="translate(0 0.698)"/>
        <circle id="Ellipse_23" data-name="Ellipse 23" class="cls-4" cx="1.236" cy="1.236" r="1.236" transform="translate(35.181 4.227)"/>
      </g>
      <circle id="Ellipse_24" data-name="Ellipse 24" class="cls-8" cx="3.949" cy="3.949" r="3.949" transform="translate(8.336 14.347)"/>
      <circle id="Ellipse_25" data-name="Ellipse 25" class="cls-8" cx="3.949" cy="3.949" r="3.949" transform="matrix(0.959, -0.284, 0.284, 0.959, 16.255, 17.199)"/>
      <path id="Tracé_7266" data-name="Tracé 7266" class="cls-8" d="M94.59,262.267a1.144,1.144,0,0,1,1.013-.308,1.082,1.082,0,0,1,.809.818" transform="translate(-79.028 -241.768)"/>
      <path id="Tracé_7267" data-name="Tracé 7267" class="cls-9" d="M92.424,270.9c-1.79,1.9-4.389,2.318-6.109,1.237a4.507,4.507,0,0,1-1.863-2.993" transform="translate(-73.487 -245.709)"/>
    </g>
  </g>
</svg>
