<svg xmlns="http://www.w3.org/2000/svg" width="120.352" height="99.85" viewBox="0 0 120.352 99.85">
  <defs>
    <style>
      .cls-1 {
        fill: #70c5dd;
      }

      .cls-2 {
        fill: #ceebf9;
      }

      .cls-3 {
        fill: #fea200;
      }

      .cls-4 {
        fill: #4d1912;
      }

      .cls-5 {
        fill: none;
        stroke: #4d1912;
        stroke-miterlimit: 10;
        stroke-width: 2px;
      }

      .cls-6 {
        fill: #040506;
      }

      .cls-7 {
        fill: #fff;
      }

      .cls-8 {
        fill: #ae0018;
      }
    </style>
  </defs>
  <g id="Groupe_2652" data-name="Groupe 2652" transform="translate(-349.629 -291.346)">
    <g id="Groupe_2571" data-name="Groupe 2571" transform="translate(355.525 331.258)">
      <path id="Tracé_7216" data-name="Tracé 7216" class="cls-1" d="M397.967,388.939c-10.425,5.648-16.455,8.915-24.074,7.544-5.27-.948-13.641-4.535-15.115-11.5-1.778-8.394,7.717-15.79,8.227-16.178,15.846-12.011,46.412-.162,46.805,8.085C413.972,380.269,408.637,383.159,397.967,388.939Z" transform="translate(-358.557 -355.489)"/>
      <path id="Tracé_7217" data-name="Tracé 7217" class="cls-1" d="M478.833,351.468c4.94.246,8.438.421,12.172,2.688,4.69,2.847,9.827,9.042,9.03,16.261-.981,8.892-10.272,13.079-13.055,14.333-1.463.659-16.359,7.1-25.647-2.148-7.9-7.869-6.955-22.331-.213-28.088C465.468,350.8,471.747,351.115,478.833,351.468Z" transform="translate(-391.557 -351.268)"/>
    </g>
    <g id="Groupe_2572" data-name="Groupe 2572" transform="translate(349.629 292.67)">
      <path id="Tracé_7218" data-name="Tracé 7218" class="cls-2" d="M454.608,317.225c1.988-6.834,2.013-9.545,4.931-13.686,1.4-1.985,6.743-8.955,15.332-10.423,10.926-1.867,22.8,5.9,26.208,15.118,5.979,16.18-13.405,38.87-33.109,42.368-8.337,1.481-20.262.151-23.025-5.9C442.561,339.485,449.239,335.679,454.608,317.225Z" transform="translate(-381.829 -292.836)"/>
      <path id="Tracé_7219" data-name="Tracé 7219" class="cls-2" d="M402.184,328.148c-7.614-7.583-13.218-13.012-22.424-14.819-2.463-.483-15.391-3.02-23.678,5.209-5.543,5.5-7.721,14.543-5.728,21.3,6.829,23.121,65.434,29.089,71.126,17.2C424.614,350.482,412,337.922,402.184,328.148Z" transform="translate(-349.629 -299.542)"/>
    </g>
    <g id="Groupe_2573" data-name="Groupe 2573" transform="translate(380.431 346.388)">
      <path id="Tracé_7220" data-name="Tracé 7220" class="cls-3" d="M450.37,405.766c-.158.31-.33.621-.5.93-3.579,6.3-9.6,9.622-16.332,11.168-.007-.007-.007-.007-.013,0-16.477,3.758-37.253-3.124-37.253-3.124s2.509-2.4,7.548-14.43c1.36-3.249,2.912-7.2,4.643-12.005.284-.786.574-1.592.865-2.424a14.488,14.488,0,0,1,6.247-7.173c8.3-5.256,22.064-6.247,29.09-1.333a19.681,19.681,0,0,1,6.564,7.667C454.246,391.309,453.87,399.016,450.37,405.766Z" transform="translate(-396.27 -374.179)"/>
      <path id="Tracé_7221" data-name="Tracé 7221" class="cls-4" d="M433.523,431.3c-16.477,3.758-37.253-3.124-37.253-3.124s2.509-2.4,7.548-14.43a33.984,33.984,0,0,0,10.454,11.663C421.286,430.179,428.563,430.886,433.523,431.3Z" transform="translate(-396.27 -387.617)"/>
      <path id="Tracé_7222" data-name="Tracé 7222" class="cls-4" d="M456.639,408.1c-9.325,3.8-22.467,2.477-31.211-3.56-5.111-3.527-8.255-8.341-10.7-13.9.284-.786.575-1.592.865-2.424a14.488,14.488,0,0,1,6.247-7.173c9.417,14.926,15.955,13.975,22.308,14.08,6.294.106,11.847-6.076,13.347-7.746C460.515,393.638,460.139,401.345,456.639,408.1Z" transform="translate(-402.539 -376.508)"/>
    </g>
    <g id="Groupe_2574" data-name="Groupe 2574" transform="translate(392.519 330.418)">
      <path id="Tracé_7223" data-name="Tracé 7223" class="cls-4" d="M462.692,370.774c0,4.275-5.209,7.74-11.634,7.74s-11.634-3.465-11.634-7.74,7.423-10.111,13.849-10.111S462.692,366.5,462.692,370.774Z" transform="translate(-423.014 -353.619)"/>
      <path id="Tracé_7224" data-name="Tracé 7224" class="cls-5" d="M467.562,379.67a30.83,30.83,0,0,1,8.919,10.691,31.412,31.412,0,0,1,2.836,18.9" transform="translate(-432.57 -360.073)"/>
      <path id="Tracé_7225" data-name="Tracé 7225" class="cls-5" d="M473.3,372.87a10.258,10.258,0,0,1,5.1,1.714c5.076,3.476,4.62,10.45,4.585,10.883" transform="translate(-434.52 -357.764)"/>
      <path id="Tracé_7226" data-name="Tracé 7226" class="cls-5" d="M471.127,363.213a14.757,14.757,0,0,0,14.307-9.238" transform="translate(-433.78 -351.347)"/>
      <path id="Tracé_7227" data-name="Tracé 7227" class="cls-5" d="M447.824,381.222a25.179,25.179,0,0,0-5.673,11.275,25.711,25.711,0,0,0,2.271,16.75" transform="translate(-423.759 -360.6)"/>
      <path id="Tracé_7228" data-name="Tracé 7228" class="cls-5" d="M441.088,376.209a13.52,13.52,0,0,0-5.5,3.723,14.583,14.583,0,0,0-3.278,10.938" transform="translate(-420.572 -358.898)"/>
      <path id="Tracé_7229" data-name="Tracé 7229" class="cls-5" d="M417.852,359.963a11.783,11.783,0,0,0,17.378,9.325" transform="translate(-415.688 -353.381)"/>
      <path id="Tracé_7230" data-name="Tracé 7230" class="cls-4" d="M440.834,425.569c.326.85,2.237.542,3.506.055a1.455,1.455,0,0,0,.961-2.16c-.326-.849-1.619-1.144-2.888-.656A2.429,2.429,0,0,0,440.834,425.569Z" transform="translate(-423.464 -374.643)"/>
      <path id="Tracé_7231" data-name="Tracé 7231" class="cls-4" d="M487.161,424.743c0,.911-1.894,1.308-3.253,1.308s-1.671-.761-1.671-1.672,1.1-1.648,2.461-1.648A2.428,2.428,0,0,1,487.161,424.743Z" transform="translate(-437.553 -374.697)"/>
      <ellipse id="Ellipse_14" data-name="Ellipse 14" class="cls-4" cx="1.147" cy="1.912" rx="1.147" ry="1.912" transform="matrix(0.814, -0.581, 0.581, 0.814, 46.75, 27.374)"/>
      <ellipse id="Ellipse_15" data-name="Ellipse 15" class="cls-4" cx="1.912" cy="1.147" rx="1.912" ry="1.147" transform="matrix(0.779, -0.627, 0.627, 0.779, 49.719, 2.4)"/>
      <ellipse id="Ellipse_16" data-name="Ellipse 16" class="cls-4" cx="1.147" cy="1.912" rx="1.147" ry="1.912" transform="translate(0 4.287) rotate(-23.366)"/>
    </g>
    <g id="Groupe_2576" data-name="Groupe 2576" transform="translate(387.673 292.346)">
      <path id="Tracé_7232" data-name="Tracé 7232" class="cls-3" d="M462.739,329.6c2.161,11.33-6.76,19.819-18.463,21.552s-23-1.889-23.916-15.278c-.7-10.257,6.761-19.82,18.463-21.552S460.812,319.5,462.739,329.6Z" transform="translate(-411.678 -299.718)"/>
      <path id="Tracé_7233" data-name="Tracé 7233" class="cls-6" d="M464.105,334.56c-3.418-1.943-3.179-7.509.371-8.176,3.158-.593,5.979,4.057,3.89,6.971C467.319,334.817,465.812,335.53,464.105,334.56Z" transform="translate(-425.723 -303.888)"/>
      <path id="Tracé_7234" data-name="Tracé 7234" class="cls-7" d="M464.979,331.624a1.435,1.435,0,0,1-1.25-2.387,1.346,1.346,0,0,1,2.336.382A1.5,1.5,0,0,1,464.979,331.624Z" transform="translate(-426.29 -304.705)"/>
      <path id="Tracé_7235" data-name="Tracé 7235" class="cls-6" d="M448.55,339.885c1.888-3.449-1.239-8.059-4.611-6.762-3,1.154-2.956,6.593.351,7.975C445.951,341.791,447.607,341.607,448.55,339.885Z" transform="translate(-418.957 -306.118)"/>
      <path id="Tracé_7236" data-name="Tracé 7236" class="cls-7" d="M447.617,337.481a1.435,1.435,0,0,0-.19-2.688c-1.039-.246-2.128.517-1.787,1.553A1.5,1.5,0,0,0,447.617,337.481Z" transform="translate(-420.257 -306.745)"/>
      <path id="Tracé_7237" data-name="Tracé 7237" class="cls-8" d="M455.579,350.134c.429-.553,3.173.044,5.094-.35,3.168-.649,3.525-3.533,4.467-3.148,1.105.452,1.329,7.021-2.209,8.388-2.292.886-4.856-.917-5.977-2.078C456.112,352.074,455.188,350.639,455.579,350.134Z" transform="translate(-423.623 -310.771)"/>
      <g id="Groupe_2575" data-name="Groupe 2575">
        <path id="Tracé_7238" data-name="Tracé 7238" class="cls-5" d="M459.632,310.7a26.326,26.326,0,0,1,4.024-12.614c1.607-2.484,3.362-5.109,6.463-5.637a7.98,7.98,0,0,1,5.218,1.1" transform="translate(-425.031 -292.348)"/>
        <path id="Tracé_7239" data-name="Tracé 7239" class="cls-5" d="M409.878,316.186a14.848,14.848,0,0,1,7.744-3.306c8.781-.913,14.64,7.126,14.93,7.538" transform="translate(-408.134 -299.295)"/>
        <circle id="Ellipse_17" data-name="Ellipse 17" class="cls-4" cx="1.8" cy="1.8" r="1.8" transform="translate(49.354)"/>
        <circle id="Ellipse_18" data-name="Ellipse 18" class="cls-4" cx="1.8" cy="1.8" r="1.8" transform="translate(0 14.701)"/>
      </g>
    </g>
  </g>
</svg>
