<svg xmlns="http://www.w3.org/2000/svg" width="39" height="39.028" viewBox="0 0 39 39.028">
  <defs>
    <style>
      .cls-1 {
        fill: #ece5dd;
      }

      .cls-2 {
        fill: #d9cbbd;
      }

      .cls-3 {
        fill: #cd2900;
      }

      .cls-4 {
        fill: #ffce00;
      }

      .cls-5 {
        fill: #40a459;
      }

      .cls-6 {
        fill: #1d81ce;
      }
    </style>
  </defs>
  <g id="google" transform="translate(-0.066 -0.439)">
    <circle id="Ellipse_34" data-name="Ellipse 34" class="cls-1" cx="19.5" cy="19.5" r="19.5" transform="translate(0.066 0.448)"/>
    <path id="SVGCleanerId_0" class="cls-2" d="M225.153,0a19.707,19.707,0,0,0-2.545.165,19.516,19.516,0,0,1,0,38.7,19.71,19.71,0,0,0,2.545.165,19.514,19.514,0,1,0,0-39.028Z" transform="translate(-205.602 0.439)"/>
    <path id="SVGCleanerId_1" class="cls-3" d="M122.342,64.59a10.132,10.132,0,0,0-15.589-1.224l-.444.46-3.924-3.366.485-.518a15.28,15.28,0,0,1,23.89,1.938l.181.27a.372.372,0,0,1-.12.528L123,64.93a.372.372,0,0,1-.494-.107Z" transform="translate(-94.542 -50.456)"/>
    <path id="SVGCleanerId_2" class="cls-4" d="M56.312,142.113a15.286,15.286,0,0,1,1.325-16.934l.438-.556L62,127.989l-.389.51a10.119,10.119,0,0,0-.859,10.95l.305.564-4.4,2.718Z" transform="translate(-50.178 -114.685)"/>
    <path id="SVGCleanerId_3" class="cls-5" d="M96.99,335.575a15.322,15.322,0,0,1-12.66-6.707l-.4-.587,4.4-2.718.368.522a10.132,10.132,0,0,0,15.592,1.21l.444-.46,3.92,3.363-.484.518a15.276,15.276,0,0,1-11.179,4.859Z" transform="translate(-77.495 -300.307)"/>
    <path id="Tracé_7295" data-name="Tracé 7295" class="cls-6" d="M283,241.562l.388-.509a10.082,10.082,0,0,0,1.465-2.694h-7.515a.372.372,0,0,1-.372-.372v-4.431a.372.372,0,0,1,.372-.372h13.243l.044,1.748a15.149,15.149,0,0,1-3.267,9.437l-.438.557Z" transform="translate(-255.816 -214.969)"/>
    <path id="Tracé_7296" data-name="Tracé 7296" d="M78.383,63.2l-.043-1.7a.636.636,0,0,0-.636-.62H64.171a.636.636,0,0,0-.636.636v5.091a.636.636,0,0,0,.636.636H71.13A9.546,9.546,0,1,1,70.6,58.2a.636.636,0,0,0,.864.213l4.387-2.586a.636.636,0,0,0,.22-.88,15.912,15.912,0,1,0,2.316,8.27C78.383,63.209,78.383,63.2,78.383,63.2ZM62.474,48.579a14.535,14.535,0,0,1,12.158,6.484l-3.3,1.943A10.811,10.811,0,0,0,54.7,55.7l-2.9-2.488A14.6,14.6,0,0,1,62.474,48.579Zm-11.5,5.6,2.9,2.488a10.8,10.8,0,0,0-.917,11.685L49.7,70.358a14.608,14.608,0,0,1,1.266-16.182Zm11.5,23.674a14.632,14.632,0,0,1-12.1-6.41l3.251-2.009a10.811,10.811,0,0,0,16.635,1.291l2.9,2.485A14.6,14.6,0,0,1,62.474,77.85Zm11.513-5.609-2.9-2.485a10.766,10.766,0,0,0,1.586-2.936.636.636,0,0,0-.6-.848H64.808V62.154H77.083l.027,1.069A14.562,14.562,0,0,1,73.988,72.241Z" transform="translate(-42.979 -43.261)"/>
    <circle id="Ellipse_35" data-name="Ellipse 35" class="cls-1" cx="19.5" cy="19.5" r="19.5" transform="translate(0.066 0.448)"/>
    <g id="Groupe_2596" data-name="Groupe 2596" transform="translate(17.006 0.439)">
      <path id="SVGCleanerId_0_1_" class="cls-2" d="M225.153,0a19.707,19.707,0,0,0-2.545.165,19.516,19.516,0,0,1,0,38.7,19.71,19.71,0,0,0,2.545.165,19.514,19.514,0,1,0,0-39.028Z" transform="translate(-222.608)"/>
    </g>
    <g id="Groupe_2597" data-name="Groupe 2597" transform="translate(7.842 4.639)">
      <path id="SVGCleanerId_1_1_" class="cls-3" d="M122.342,64.59a10.132,10.132,0,0,0-15.589-1.224l-.444.46-3.924-3.366.485-.518a15.28,15.28,0,0,1,23.89,1.938l.181.27a.372.372,0,0,1-.12.528L123,64.93a.372.372,0,0,1-.494-.107Z" transform="translate(-102.384 -55.095)"/>
    </g>
    <g id="Groupe_2598" data-name="Groupe 2598" transform="translate(4.181 9.939)">
      <path id="SVGCleanerId_2_1_" class="cls-4" d="M56.312,142.113a15.286,15.286,0,0,1,1.325-16.934l.438-.556L62,127.989l-.389.51a10.119,10.119,0,0,0-.859,10.95l.305.564-4.4,2.718Z" transform="translate(-54.359 -124.623)"/>
    </g>
    <g id="Groupe_2599" data-name="Groupe 2599" transform="translate(6.435 25.256)">
      <path id="SVGCleanerId_3_1_" class="cls-5" d="M96.99,335.575a15.322,15.322,0,0,1-12.66-6.707l-.4-.587,4.4-2.718.368.522a10.132,10.132,0,0,0,15.592,1.21l.444-.46,3.92,3.363-.484.518a15.276,15.276,0,0,1-11.179,4.859Z" transform="translate(-83.93 -325.563)"/>
    </g>
    <path id="Tracé_7297" data-name="Tracé 7297" class="cls-6" d="M283,241.562l.388-.509a10.082,10.082,0,0,0,1.465-2.694h-7.515a.372.372,0,0,1-.372-.372v-4.431a.372.372,0,0,1,.372-.372h12.924a.328.328,0,0,1,.328.319l.036,1.428a15.148,15.148,0,0,1-3.267,9.437l-.438.557Z" transform="translate(-255.816 -214.969)"/>
  </g>
</svg>
