<svg id="photograph" xmlns="http://www.w3.org/2000/svg" width="17.945" height="14.356" viewBox="0 0 17.945 14.356">
  <defs>
    <style>
      .cls-1 {
        fill: #5a5b72;
      }
    </style>
  </defs>
  <g id="Groupe_2645" data-name="Groupe 2645" transform="translate(8.972 5.383)">
    <g id="Groupe_2644" data-name="Groupe 2644">
      <path id="Tracé_7330" data-name="Tracé 7330" class="cls-1" d="M258.692,204.8a2.453,2.453,0,0,0-1.256.359.71.71,0,0,1,.449.718.848.848,0,0,1-.9.9.915.915,0,0,1-.718-.449,2.484,2.484,0,0,0-.269,1.166,2.692,2.692,0,1,0,5.383,0A2.7,2.7,0,0,0,258.692,204.8Z" transform="translate(-256 -204.8)"/>
    </g>
  </g>
  <g id="Groupe_2647" data-name="Groupe 2647">
    <g id="Groupe_2646" data-name="Groupe 2646">
      <path id="Tracé_7331" data-name="Tracé 7331" class="cls-1" d="M17.047,52.994h-.9l-.808-1.525c0-.179-.179-.269-.359-.269H10.139c-.179,0-.359.09-.359.269l-.808,1.525H4.486v-.449a.424.424,0,0,0-.449-.449H2.243a.424.424,0,0,0-.449.449v.449H.9a.848.848,0,0,0-.9.9V64.658a.848.848,0,0,0,.9.9h16.15a.848.848,0,0,0,.9-.9V53.892A.848.848,0,0,0,17.047,52.994ZM2.692,56.583a.9.9,0,0,1-.9-.9.848.848,0,0,1,.9-.9.9.9,0,0,1,0,1.794Zm8.972,7.178a4.486,4.486,0,1,1,4.486-4.486A4.443,4.443,0,0,1,11.664,63.761Z" transform="translate(0 -51.2)"/>
    </g>
  </g>
</svg>
