<svg xmlns="http://www.w3.org/2000/svg" xmlns:xlink="http://www.w3.org/1999/xlink" width="1273.133" height="565.651" viewBox="0 0 1273.133 565.651">
  <defs>
    <style>
      .cls-1 {
        fill: #91b011;
      }

      .cls-2 {
        clip-path: url(#clip-path);
      }
    </style>
    <clipPath id="clip-path">
      <rect id="Rectangle_11" data-name="Rectangle 11" class="cls-1" width="485.696" height="342.337" transform="translate(57.152 28.831)"/>
    </clipPath>
  </defs>
  <g id="Groupe_150" data-name="Groupe 150" transform="translate(471.527 -28.535)">
    <g id="Groupe_137" data-name="Groupe 137" transform="translate(-13.594 -106)">
      <path id="Tracé_707" data-name="Tracé 707" class="cls-1" d="M526.8,230.107c11.991-9.942-13.293-90.067-6.883-105.262s12.983,1.3,10.157,24.195-1.32,45.8.673,51.755,16.65-.915,27.186,2.291,14.548,22.836,19.37,24.72c16.432,6.422,25.609-8.69,45.3-41.208s49.373-66.87,63.112-58.626-36.18,29.769-57.708,58.166-21.183,51.268-19.4,51.971,21.7-7.541,27.189-6.856-12.029,15.8-11.684,17.519,8.244,2.749,12.708,0,5.841-8.587,8.587-7.556-8.587,8.587-8.929,12.366,15.115-2.4,18.549,0-12.366,3.091-14.085,7.556,24.375,14.085,24.038,28.512S639.932,302.015,635.8,308.2s-.939,45.345-22.456,59.084-53.843-22.37-61.86-15.8,16.19,76.493,1.778,81.283c-19.875,6.605-.381-66.147-5.643-91.579s-25.869-26.173-40.984-16.526-25.42-5.468-22.671-12.339,29.542,6.183,37.1-6.183-2.061-26.105-26.793-19.237-87.876,56.255-97.945,47.61c-15.118-12.974,17-24.15,53.976-34.556s62.985-28.166,64.812-32.976-36.643-3.434-42.141-9.617,6.871-16.834,13.054-14.085,16.146,14.77,24.044,14.427-2.4-9.275-.342-16.146,10.993-6.526,13.4-6.871S526.8,230.107,526.8,230.107Z" transform="translate(127.124 267)"/>
    </g>
    <g id="Groupe_141" data-name="Groupe 141">
      <g id="Groupe_140" data-name="Groupe 140" class="cls-2">
        <g id="Groupe_138" data-name="Groupe 138" transform="translate(-147 462)">
          <path id="Tracé_738" data-name="Tracé 738" class="cls-1" d="M59.916,98.622c-1.941-1.058-1.265-10.559-3.685-11s1.1,5.94,0,10.339-9.9,4.84-11.439,7.479,7.04.66,6.93,1.76-2.97,5.5-13.969,4.18-24.465.66-23.781,3.74,15.642-1.98,23.341-1.98,9.989.668,10.6,2.973-8.184,6.046-7.524,8.906,9.239-3.74,11.439-3.3,4.026,3.719.88,9.679-16.5,13.668-14.517,18.933,12.317-13.654,15.617-16.953,7.827.54,8.359,3.3.574,45.711-1.845,69.459c-1.177,11.564-2.438,32.69,1.521,32.031s2.028-31.434,1.148-45.292.615-54.128,3.575-56.858,7.762,1.347,8.419,8.8-2.3,28.482-1.9,37.193c.38,8.354,7.324,5.887,5.805-5.055s-3.794-26.364-3.3-34.778,2.97-12.044,4.62-12.539,8.579,2.97,9.734,1.98-4.95-1.485-6.929-3.8,7.094-3.465,13.2-1.32,8.744-2.474,6.93-4.454-8.25,2.145-15.179.825-1.65-6.6,1.98-10.394,1.98-9-1.815-9.861-5.609.7-7.919,0-3.63-5.153-4.784-5.318-.66,2.145-1.32,2.97-.33-4.62.66-8.249-3.795-1.98-3.135,2.31-.825,5.939-2.64,5.774-.99-3.63-4.455-3.8S62.336,99.942,59.916,98.622Z"/>
          <path id="Tracé_739" data-name="Tracé 739" class="cls-1" d="M53.426,82.762s-5.719-9.335-3.959-11.315,3.739,2.956,3.959,5.658A42.323,42.323,0,0,1,53.426,82.762Z"/>
          <path id="Tracé_740" data-name="Tracé 740" class="cls-1" d="M9.541,111.758c-.825,1.815,2.309,1.155,2.969,0S10.365,109.943,9.541,111.758Z"/>
          <path id="Tracé_741" data-name="Tracé 741" class="cls-1" d="M97.66,111.865c1.522-1.106,6.1-1.32,6.1,0s-3.629,3.794-5.114,2.8S96.881,112.431,97.66,111.865Z"/>
          <path id="Tracé_742" data-name="Tracé 742" class="cls-1" d="M454.667,58.868c1.522-1.106,6.1-1.32,6.1,0s-2.424,5.037-5.171,4.368C453.866,62.814,453.887,59.434,454.667,58.868Z"/>
          <path id="Tracé_743" data-name="Tracé 743" class="cls-1" d="M94.265,102.591c1.025-.745,2.377-.164,2.377.725s-.711,1.829-1.71,1.163S93.74,102.972,94.265,102.591Z"/>
          <path id="Tracé_744" data-name="Tracé 744" class="cls-1" d="M163.8,211.064c1.025-.744,3.135.216,3.135,1.1s-2.222,2.656-3.221,1.99S163.277,211.446,163.8,211.064Z"/>
          <path id="Tracé_745" data-name="Tracé 745" class="cls-1" d="M109.992,149.093c1.024-.744,2.531.708,2.629,1.591.126,1.137-1.716,2.169-2.716,1.5S109.467,149.474,109.992,149.093Z"/>
          <path id="Tracé_746" data-name="Tracé 746" class="cls-1" d="M418.474,284.3c1.025-.744,3.135.215,3.135,1.1s-2.221,2.656-3.221,1.99S417.95,284.681,418.474,284.3Z"/>
          <path id="Tracé_747" data-name="Tracé 747" class="cls-1" d="M145.455,149.106c1.024-.744,2.377-.163,2.377.726s-.711,1.829-1.711,1.163S144.93,149.488,145.455,149.106Z"/>
          <path id="Tracé_748" data-name="Tracé 748" class="cls-1" d="M64.518,115.019c1.024-.745,2.377-.164,2.377.724s-.711,1.83-1.711,1.164S63.993,115.4,64.518,115.019Z"/>
          <path id="Tracé_749" data-name="Tracé 749" class="cls-1" d="M485.368,36.078c1.025-.744,2.377-.164,2.377.725s-.71,1.83-1.71,1.163S484.844,36.459,485.368,36.078Z"/>
          <path id="Tracé_750" data-name="Tracé 750" class="cls-1" d="M79.023,136.087c.677.1.979.835.643,1.178s-.966.438-1.1-.2S78.677,136.035,79.023,136.087Z"/>
          <path id="Tracé_751" data-name="Tracé 751" class="cls-1" d="M430.05,199.279c.677.1.979.835.643,1.178s-.966.437-1.1-.2S429.7,199.227,430.05,199.279Z"/>
          <path id="Tracé_752" data-name="Tracé 752" class="cls-1" d="M339.473,313.924c.676.1.979.835.643,1.178s-.966.437-1.1-.2S339.126,313.872,339.473,313.924Z"/>
          <path id="Tracé_753" data-name="Tracé 753" class="cls-1" d="M140.794,233.428c.64-.465,1.484-.1,1.484.453s-.443,1.143-1.068.727S140.466,233.666,140.794,233.428Z"/>
          <path id="Tracé_754" data-name="Tracé 754" class="cls-1" d="M182.707,231.775c.64-.465,1.484-.1,1.484.453s-.444,1.143-1.068.726S182.379,232.013,182.707,231.775Z"/>
          <path id="Tracé_755" data-name="Tracé 755" class="cls-1" d="M81.833,160.514c1.024-.744,2.935-.55,2.935.339S83.5,163.069,82.5,162.4,81.308,160.9,81.833,160.514Z"/>
          <path id="Tracé_756" data-name="Tracé 756" class="cls-1" d="M114.611,155.209c1.025-.744,2.936-.55,2.936.338s-1.269,2.217-2.269,1.55S114.087,155.59,114.611,155.209Z"/>
          <path id="Tracé_757" data-name="Tracé 757" class="cls-1" d="M35.773,150.034c-1.98.825-.495,3.465.825,3.63S37.753,149.209,35.773,150.034Z"/>
          <path id="Tracé_758" data-name="Tracé 758" class="cls-1" d="M78.531,151.587c-1.739,1.118-.165,4.257.825,4.521s1.98-1.815,1.815-2.261S80.841,150.1,78.531,151.587Z"/>
          <path id="Tracé_759" data-name="Tracé 759" class="cls-1" d="M37.73,141.613c-1.076-.186-1.585,1.6-1.294,2.054s1.419,0,1.514-.232S39.159,141.86,37.73,141.613Z"/>
        </g>
      </g>
    </g>
    <g id="Groupe_142" data-name="Groupe 142" transform="translate(-430.298 -224)">
      <path id="Tracé_809" data-name="Tracé 809" class="cls-1" d="M248.537,280.933c-3.34-1.825-2.177-18.185-6.344-18.941s1.892,10.228,0,17.8-17.049,8.333-19.7,12.879,12.123,1.136,11.935,3.031-5.114,9.469-24.055,7.2-42.133,1.136-40.955,6.438,26.937-3.407,40.2-3.407,17.2,1.151,18.26,5.12-14.094,10.41-12.958,15.336,15.913-6.441,19.7-5.685,6.933,6.4,1.515,16.669-28.406,23.538-25,32.6,21.209-23.511,26.894-29.193,13.477.929,14.395,5.682-6.049,112.9-5.761,137.307c.237,20.016-1.616,38.6,5.2,37.462s3.492-54.132,1.977-77.995,1.06-93.212,6.156-97.91,13.368,2.317,14.5,15.151-3.307,85.611,0,99.629,8.956,3.5,6.338-15.339-6.156-74.345-5.3-88.836,5.114-20.739,7.953-21.592,14.774,5.114,16.763,3.41-8.524-2.557-11.932-6.535,12.217-5.967,22.728-2.271,15.06-4.264,11.932-7.671-14.2,3.693-26.138,1.418-2.839-11.364,3.41-17.9,3.41-15.494-3.125-16.979-9.66,1.2-13.638,0-6.25-8.874-8.239-9.159-1.136,3.7-2.272,5.114-.568-7.954,1.136-14.2-6.535-3.41-5.4,3.975-1.421,10.228-4.546,9.946-1.707-6.25-7.671-6.535S252.7,283.2,248.537,280.933Z" transform="translate(5.246 19.186)"/>
      <path id="Tracé_810" data-name="Tracé 810" class="cls-1" d="M196.724,272.805s-9.848-16.074-6.818-19.484,6.438,5.09,6.818,9.742A72.74,72.74,0,0,1,196.724,272.805Z" transform="translate(45.884)"/>
      <path id="Tracé_811" data-name="Tracé 811" class="cls-1" d="M167.037,276.955c-1.421,3.125,3.975,1.989,5.111,0S168.455,273.83,167.037,276.955Z" transform="translate(0 45.785)"/>
      <path id="Tracé_812" data-name="Tracé 812" class="cls-1" d="M217.978,279.419c2.621-1.9,10.51-2.275,10.51,0s-6.25,6.532-8.807,4.828S216.636,280.394,217.978,279.419Z" transform="translate(102.761 51.56)"/>
      <path id="Tracé_813" data-name="Tracé 813" class="cls-1" d="M215.249,271.163c1.764-1.281,7.076-1.531,7.076,0s-4.206,4.4-5.928,3.252S214.344,271.819,215.249,271.163Z" transform="translate(97.686 35.789)"/>
      <path id="Tracé_814" data-name="Tracé 814" class="cls-1" d="M182.864,297.471c-3.41,1.421-.853,5.967,1.418,6.253S186.271,296.053,182.864,297.471Z" transform="translate(29.346 91.18)"/>
      <path id="Tracé_815" data-name="Tracé 815" class="cls-1" d="M206.9,298.679c-2.994,1.925-.285,7.331,1.421,7.783s3.407-3.125,3.125-3.89S210.878,296.121,206.9,298.679Z" transform="translate(78.941 92.648)"/>
      <path id="Tracé_816" data-name="Tracé 816" class="cls-1" d="M184.452,292.6c-1.855-.322-2.73,2.751-2.229,3.538s2.442,0,2.606-.4S186.911,293.023,184.452,292.6Z" transform="translate(31.129 81.553)"/>
    </g>
    <g id="Groupe_144" data-name="Groupe 144" transform="translate(-638.327 146)">
      <path id="Tracé_809-2" data-name="Tracé 809" class="cls-1" d="M202.821,269.973c-1.411-.771-.92-7.683-2.68-8s.8,4.321,0,7.522-7.2,3.521-8.323,5.441,5.122.48,5.042,1.28-2.161,4-10.163,3.041-17.8.48-17.3,2.72,11.38-1.44,16.982-1.44,7.268.486,7.715,2.163-5.955,4.4-5.475,6.479,6.723-2.721,8.323-2.4,2.929,2.706.64,7.043-12,9.945-10.562,13.775,8.961-9.933,11.363-12.334,5.694.393,6.082,2.4-2.556,47.7-2.434,58.011c.1,8.456-.683,16.307,2.2,15.828s1.476-22.87.835-32.952.448-39.381,2.6-41.366,5.648.979,6.125,6.4-1.4,36.17,0,42.092,3.784,1.481,2.678-6.481-2.6-31.41-2.24-37.533,2.161-8.762,3.36-9.122,6.242,2.161,7.082,1.441-3.6-1.08-5.041-2.761,5.162-2.521,9.6-.96,6.363-1.8,5.041-3.241-6,1.56-11.043.6-1.2-4.8,1.441-7.562,1.441-6.546-1.32-7.173-4.081.508-5.762,0-2.64-3.749-3.481-3.87-.48,1.561-.96,2.161-.24-3.36.48-6-2.761-1.441-2.28,1.679-.6,4.321-1.921,4.2-.721-2.641-3.241-2.761S204.581,270.933,202.821,269.973Z" transform="translate(0.729 2.666)"/>
      <path id="Tracé_810-2" data-name="Tracé 810" class="cls-1" d="M192.452,261.1s-4.161-6.791-2.88-8.232,2.72,2.15,2.88,4.116A30.734,30.734,0,0,1,192.452,261.1Z" transform="translate(6.376)"/>
      <path id="Tracé_811-2" data-name="Tracé 811" class="cls-1" d="M166.9,275.834c-.6,1.32,1.679.84,2.159,0S167.5,274.514,166.9,275.834Z" transform="translate(0 6.362)"/>
      <path id="Tracé_812-2" data-name="Tracé 812" class="cls-1" d="M217.559,278.512c1.107-.8,4.441-.961,4.441,0s-2.64,2.76-3.721,2.04S216.992,278.924,217.559,278.512Z" transform="translate(14.279 7.165)"/>
      <path id="Tracé_813-2" data-name="Tracé 813" class="cls-1" d="M214.967,270.552c.745-.541,2.989-.647,2.989,0s-1.777,1.859-2.5,1.374S214.584,270.83,214.967,270.552Z" transform="translate(13.574 4.973)"/>
      <path id="Tracé_814-2" data-name="Tracé 814" class="cls-1" d="M181.907,297.373c-1.441.6-.361,2.521.6,2.642S183.347,296.774,181.907,297.373Z" transform="translate(4.078 12.67)"/>
      <path id="Tracé_815-2" data-name="Tracé 815" class="cls-1" d="M206.124,298.3c-1.265.813-.121,3.1.6,3.288s1.44-1.32,1.32-1.644S207.8,297.219,206.124,298.3Z" transform="translate(10.969 12.874)"/>
      <path id="Tracé_816-2" data-name="Tracé 816" class="cls-1" d="M183.084,292.584c-.784-.136-1.153,1.162-.942,1.495s1.032,0,1.1-.169S184.123,292.764,183.084,292.584Z" transform="translate(4.326 11.332)"/>
    </g>
  </g>
</svg>
