<svg xmlns="http://www.w3.org/2000/svg" width="39.286" height="39.123" viewBox="0 0 39.286 39.123">
  <defs>
    <style>
      .cls-1 {
        fill: #78baeb;
      }

      .cls-2 {
        fill: #59aae7;
      }

      .cls-3 {
        fill: #fcfcfc;
      }
    </style>
  </defs>
  <g id="twitter_4_" data-name="twitter (4)" transform="translate(0.467 -0.325)">
    <circle id="Ellipse_37" data-name="Ellipse 37" class="cls-1" cx="19.5" cy="19.5" r="19.5" transform="translate(-0.467 0.448)"/>
    <path id="Tracé_7300" data-name="Tracé 7300" class="cls-2" d="M225.153,0a19.707,19.707,0,0,0-2.545.165,19.516,19.516,0,0,1,0,38.7,19.71,19.71,0,0,0,2.545.165,19.514,19.514,0,1,0,0-39.028Z" transform="translate(-205.849 0.325)"/>
    <path id="Tracé_7301" data-name="Tracé 7301" class="cls-3" d="M121.357,153.456a14.633,14.633,0,0,1-5.22-.958l-1.657-.63a.191.191,0,0,1,.035-.366l1.746-.307a10.554,10.554,0,0,0,4.458-1.915.191.191,0,0,0-.088-.343,5.079,5.079,0,0,1-3.666-2.5l-.392-.69a.191.191,0,0,1,.157-.285l.793-.038h.008a.191.191,0,0,0,.066-.365,4.9,4.9,0,0,1-2.775-3.639l-.121-.723a.191.191,0,0,1,.232-.217l.713.167a5.125,5.125,0,0,0,1.167.134h.014a5.273,5.273,0,0,1-2.257-5.759l.213-.819a.191.191,0,0,1,.319-.088l.6.6a14.939,14.939,0,0,0,5.646,3.5,16.029,16.029,0,0,0,2.831.658h.014l.28.011c0-.031,0-.062,0-.092a5.776,5.776,0,0,1,9.812-4.133.191.191,0,0,0,.162.053,9.866,9.866,0,0,0,1.648-.4l1.781-.6a.191.191,0,0,1,.2.309l-1.265,1.388a5.227,5.227,0,0,1-.542.515.191.191,0,0,0,.155.336q.259-.048.514-.11l1.634-.392a.191.191,0,0,1,.182.318l-1.17,1.206a10.992,10.992,0,0,1-1.561,1.332v.028c0,.047,0,.095,0,.143v.058A14.7,14.7,0,0,1,121.357,153.456Z" transform="translate(-105.85 -122.544)"/>
  </g>
</svg>
